HIERARCHY
ROOT Hips
{
    OFFSET 0.000000 0.000000 0.000000
    CHANNELS 6 Xposition Yposition Zposition Zrotation Xrotation Yrotation
    JOINT Spine
    {
        OFFSET -0.000000 0.081015 0.000000
        CHANNELS 3 Zrotation Xrotation Yrotation
        JOINT Spine1
        {
            OFFSET -0.000000 0.240812 0.000000
            CHANNELS 3 Zrotation Xrotation Yrotation
            JOINT Neck
            {
                OFFSET -0.000000 0.239823 0.021802
                CHANNELS 3 Zrotation Xrotation Yrotation
                JOINT Head
                {
                    OFFSET -0.000000 0.148909 -0.021273
                    CHANNELS 3 Zrotation Xrotation Yrotation
                    End Site
                    {
                        OFFSET -0.000000 0.197598 0.000000
                    }
                }
            }
            JOINT LeftShoulder
            {
                OFFSET 0.039829 0.224972 -0.001181
                CHANNELS 3 Zrotation Xrotation Yrotation
                JOINT LeftArm
                {
                    OFFSET 0.107364 0.000000 0.000000
                    CHANNELS 3 Zrotation Xrotation Yrotation
                    JOINT LeftForeArm
                    {
                        OFFSET 0.283104 0.000000 0.000000
                        CHANNELS 3 Zrotation Xrotation Yrotation
                        JOINT LeftHand
                        {
                            OFFSET 0.324767 0.000000 0.000000
                            CHANNELS 3 Zrotation Xrotation Yrotation
                            End Site
                            {
                                OFFSET 0.148198 0.000000 0.000000
                            }
                        }
                    }
                }
            }
            JOINT RightShoulder
            {
                OFFSET -0.039119 0.224972 -0.001181
                CHANNELS 3 Zrotation Xrotation Yrotation
                JOINT RightArm
                {
                    OFFSET -0.107364 0.000000 0.000000
                    CHANNELS 3 Zrotation Xrotation Yrotation
                    JOINT RightForeArm
                    {
                        OFFSET -0.283104 0.000000 0.000000
                        CHANNELS 3 Zrotation Xrotation Yrotation
                        JOINT RightHand
                        {
                            OFFSET -0.324767 0.000000 0.000000
                            CHANNELS 3 Zrotation Xrotation Yrotation
                            End Site
                            {
                                OFFSET -0.148198 0.000000 0.000000
                            }
                        }
                    }
                }
            }
        }
    }
    JOINT LeftUpLeg
    {
        OFFSET 0.098799 0.000000 0.000000
        CHANNELS 3 Zrotation Xrotation Yrotation
        JOINT LeftLeg
        {
            OFFSET -0.000000 -0.332632 0.000000
            CHANNELS 3 Zrotation Xrotation Yrotation
            JOINT LeftFoot
            {
                OFFSET -0.000000 -0.498967 0.000000
                CHANNELS 3 Zrotation Xrotation Yrotation
                JOINT LeftToeBase
                {
                    OFFSET -0.000000 -0.064219 0.148198
                    CHANNELS 3 Zrotation Xrotation Yrotation
                    End Site
                    {
                        OFFSET -0.000000 0.000000 0.039520
                    }
                }
            }
        }
    }
    JOINT RightUpLeg
    {
        OFFSET -0.098799 0.000000 0.000000
        CHANNELS 3 Zrotation Xrotation Yrotation
        JOINT RightLeg
        {
            OFFSET -0.000000 -0.332632 0.000000
            CHANNELS 3 Zrotation Xrotation Yrotation
            JOINT RightFoot
            {
                OFFSET -0.000000 -0.498967 0.000000
                CHANNELS 3 Zrotation Xrotation Yrotation
                JOINT RightToeBase
                {
                    OFFSET -0.000000 -0.064219 0.148198
                    CHANNELS 3 Zrotation Xrotation Yrotation
                    End Site
                    {
                        OFFSET -0.000000 0.000000 0.039520
                    }
                }
            }
        }
    }
}
MOTION
Frames:    12
Frame Time:    0.010000
-0.147591    0.886824    -0.715057    -4.632782    -11.443165    11.927619    -3.399352    4.599212    5.524176    1.398172    6.128832    1.732716    -16.181992    39.240803    32.296360    -29.235435    -16.254007    21.893141    -20.291695    25.417391    5.164890    -50.209320    11.093402    -17.761730    21.850277    -19.469818    -35.543766    15.731997    -8.947738    26.794739    12.258801    28.442345    1.914617    24.542908    37.923805    38.284595    -35.884354    -35.603611    11.262778    -13.361577    -30.147467    -23.897989    1.174912    6.319405    0.775277    1.563340    22.141605    -16.030756    -75.554291    -85.483902    -86.667099    0.000000    0.000000    0.000000    -10.985905    -10.051714    -4.791728    5.241210    28.248693    -6.956805    20.610237    -7.927080    33.795185    0.000000    0.000000    0.000000    
-0.146669    0.886546    -0.711408    -4.512842    -11.389243    12.419288    -3.322352    4.398051    5.663749    1.397500    6.351139    1.779414    -16.187851    38.858551    32.028744    -28.935781    -16.188944    21.776171    -20.407936    25.248913    5.328379    -50.492401    10.912427    -17.825504    21.225750    -19.413414    -36.312237    16.580286    -8.677111    27.158739    12.424440    28.881952    1.537648    25.980177    37.228973    37.425583    -36.484062    -34.719151    11.957622    -13.427337    -28.907955    -24.153214    1.152322    6.417358    0.063195    1.368893    22.278139    -16.041857    -75.554291    -85.483902    -86.667099    0.000000    0.000000    0.000000    -10.781050    -10.631773    -5.255948    5.035553    28.464752    -6.968201    20.610237    -7.927080    33.795185    0.000000    0.000000    0.000000    
-0.146063    0.886642    -0.706883    -4.514428    -11.519983    13.137469    -3.151000    4.246507    5.636173    1.526069    6.707251    1.761661    -16.264168    38.655590    31.695654    -28.798723    -16.347776    21.437626    -20.508940    25.021877    5.506699    -50.802380    10.916234    -17.838825    21.002672    -18.925850    -36.763058    16.322344    -8.217258    27.127962    12.670817    29.356869    1.010181    26.978243    36.885101    36.818657    -37.223198    -34.263531    12.514338    -13.239403    -28.178545    -24.501274    1.449219    6.749983    -0.753044    1.069364    22.262947    -15.607274    -75.554291    -85.483902    -86.667099    0.000000    0.000000    0.000000    -10.309435    -10.772721    -5.681358    3.802098    27.544455    -4.186410    20.610237    -7.927080    33.795185    0.000000    0.000000    0.000000    
-0.145001    0.886406    -0.703020    -4.385419    -11.477983    13.758247    -3.046310    4.018335    5.643489    1.536322    7.003977    1.762906    -16.455029    38.495422    31.493544    -28.577511    -16.457956    21.240732    -20.595102    24.903404    5.686790    -51.101494    10.995414    -17.916977    20.815960    -18.460827    -36.948395    16.230814    -7.807706    26.940294    12.902481    29.482149    0.666018    28.320246    36.365582    35.690010    -37.201889    -33.829655    13.634829    -13.139837    -27.348827    -24.964500    1.464507    6.847558    -1.407814    0.900749    22.428440    -16.075037    -75.554291    -85.483902    -86.667099    0.000000    0.000000    0.000000    -10.125219    -11.193362    -6.063549    4.302072    27.161848    -5.320166    20.610237    -7.927080    33.795185    0.000000    0.000000    0.000000    
-0.143867    0.886269    -0.699016    -4.226832    -11.493914    14.424086    -2.957315    3.860564    5.561691    1.531486    7.308177    1.734297    -16.514568    38.441742    31.209763    -28.594902    -16.508327    20.915752    -20.728346    24.836002    5.928609    -51.344078    11.192873    -18.035954    20.514078    -18.281902    -36.945927    17.040857    -7.564710    26.709003    13.065372    29.902487    0.292816    29.243507    35.733288    35.021263    -36.840656    -33.538578    14.718411    -13.014035    -26.747648    -25.252371    1.485680    7.104102    -1.910393    0.741341    22.250782    -14.247010    -75.554291    -85.483902    -86.667099    0.000000    0.000000    0.000000    -9.882947    -11.554000    -6.420609    3.963969    27.597651    -5.070288    20.610237    -7.927080    33.795185    0.000000    0.000000    0.000000    
-0.142393    0.885682    -0.695726    -3.949816    -11.305298    14.994542    -2.979036    3.634936    5.492564    1.443796    7.521367    1.716419    -16.571743    38.423195    30.999390    -28.649626    -16.474865    20.673534    -20.923830    24.889057    6.178621    -51.548538    11.397609    -18.153849    20.533436    -17.975971    -36.691681    16.973583    -7.387592    26.187271    13.191171    29.683737    0.086117    30.311314    35.463284    33.917850    -35.943264    -33.129448    15.887935    -12.927125    -26.109728    -25.119083    1.189097    7.112045    -2.561716    0.679571    22.329945    -14.158464    -75.554291    -85.483902    -86.667099    0.000000    0.000000    0.000000    -9.909763    -12.005159    -6.649101    4.765962    27.975840    -7.214504    20.610237    -7.927080    33.795185    0.000000    0.000000    0.000000    
-0.141407    0.885803    -0.690742    -3.804849    -11.594324    15.874369    -2.892546    3.665493    5.189766    1.500188    7.900511    1.607291    -16.470881    38.637955    30.784496    -29.010923    -16.592564    20.295401    -21.124041    24.983736    6.392059    -51.758034    11.558156    -18.230942    20.485991    -17.752092    -36.416229    17.961504    -7.061261    25.766960    13.341891    29.571384    -0.188635    30.816708    35.680626    33.283432    -35.238029    -33.096455    16.445396    -12.977395    -26.026072    -24.869205    1.330428    7.632051    -2.756465    0.833132    22.327145    -14.731237    -75.554291    -85.483902    -86.667099    0.000000    0.000000    0.000000    -9.498131    -11.734365    -6.786050    4.643149    27.677517    -7.197590    20.610237    -7.927080    33.795185    0.000000    0.000000    0.000000    
-0.140072    0.885155    -0.687338    -3.502452    -11.466951    16.463957    -2.952253    3.550722    5.055809    1.358591    8.088383    1.571091    -16.231976    38.837975    30.579548    -29.452780    -16.472136    20.000879    -21.354872    25.197870    6.608406    -51.943996    11.441329    -18.297018    20.788580    -17.183359    -36.055458    16.556690    -6.872255    25.072182    13.460559    29.464083    -0.408462    30.880138    36.353447    33.032974    -34.753487    -33.156910    16.330086    -12.733336    -26.297264    -24.344156    1.013298    7.643307    -2.614685    1.144037    22.492439    -15.209261    -75.554291    -85.483902    -86.667099    0.000000    0.000000    0.000000    -9.445330    -12.247243    -6.631132    4.618912    28.149744    -7.148517    20.610237    -7.927080    33.795185    0.000000    0.000000    0.000000    
-0.138977    0.885159    -0.682721    -3.284115    -11.741351    17.309517    -2.936713    3.658524    4.725682    1.397719    8.413179    1.453322    -16.092312    39.015690    30.487722    -29.633455    -16.209936    19.919283    -21.642021    25.459093    6.752052    -52.041374    11.460327    -18.354164    20.797754    -17.090706    -35.731102    17.679569    -6.662531    24.591461    13.553200    29.405924    -0.636849    31.052958    36.369205    32.801651    -33.530910    -32.980534    16.533096    -12.233841    -26.399439    -23.580614    1.024464    8.073456    -2.375849    1.602767    22.778008    -18.262012    -75.554291    -85.483902    -86.667099    0.000000    0.000000    0.000000    -9.111389    -11.814752    -6.376714    4.989518    26.835157    -7.565416    20.610237    -7.927080    33.795185    0.000000    0.000000    0.000000    
-0.137728    0.884870    -0.678510    -3.011205    -11.860506    18.108664    -3.000142    3.654006    4.422772    1.443056    8.755254    1.344397    -15.999090    39.242973    30.413433    -29.795689    -15.991303    19.831192    -21.986324    25.570024    6.827996    -52.074547    11.413033    -18.251431    20.894419    -16.934502    -35.381386    17.603659    -6.636264    24.092789    13.650127    29.320782    -0.841591    30.950764    36.657940    32.760414    -32.560341    -32.902924    16.293856    -11.941818    -26.662590    -22.665297    0.908824    8.334139    -1.913353    2.076132    22.880856    -18.719950    -75.554291    -85.483902    -86.667099    0.000000    0.000000    0.000000    -8.922792    -11.563911    -6.052204    4.837794    25.141850    -6.223172    20.610237    -7.927080    33.795185    0.000000    0.000000    0.000000    
-0.136544    0.884452    -0.674389    -2.719139    -11.951986    18.830715    -3.088323    3.629422    4.184626    1.498091    9.082289    1.256202    -15.952158    39.496559    30.369461    -29.784637    -15.608443    19.850676    -22.281837    25.683170    6.809846    -52.089088    11.417597    -18.141758    21.031626    -16.944138    -34.952801    17.490604    -6.772079    23.722980    13.764461    29.366982    -1.030374    30.746164    36.702904    32.893494    -31.578354    -32.693962    15.920457    -11.530587    -26.833309    -21.748600    0.788363    8.646517    -1.732011    2.382464    22.929873    -19.335394    -75.554291    -85.483902    -86.667099    0.000000    0.000000    0.000000    -8.679358    -11.505548    -5.786674    4.938825    24.646461    -6.260723    20.610237    -7.927080    33.795185    0.000000    0.000000    0.000000    
-0.135396    0.883954    -0.670325    -2.425585    -12.022593    19.531191    -3.140418    3.577831    3.979807    1.495282    9.444307    1.183555    -15.826651    39.615330    30.325037    -29.603930    -14.901937    20.043468    -22.450722    25.762365    6.756260    -52.121098    11.341985    -18.022299    21.071077    -16.953386    -34.643139    16.942326    -6.995764    23.420031    13.933883    29.415993    -1.221045    30.517628    36.758572    33.049908    -30.786749    -32.474361    15.501715    -11.439465    -26.881916    -21.168131    0.681376    8.856942    -1.286580    2.768374    23.097752    -20.106918    -75.554291    -85.483902    -86.667099    0.000000    0.000000    0.000000    -8.393664    -11.419216    -5.176267    4.610323    24.242350    -5.457663    20.610237    -7.927080    33.795185    0.000000    0.000000    0.000000    
